<svg role="img" height="24" width="24" viewBox="0 0 24 24" id="ember2646" class="svg-icon ember-view invoices-settings__chevron"><title>chevron down</title>
    <path fill-rule="evenodd" clip-rule="evenodd" d="M2 12C2 6.47715 6.47715 2 12 2C17.5228 2 22 6.47716 22 12C22 17.5229 17.5228 22 12 22C6.47715 22 2 17.5228 2 12ZM12 2.09815e-06C5.37258 9.39372e-07 -9.39372e-07 5.37258 -2.09815e-06 12C-3.25692e-06 18.6274 5.37258 24 12 24C18.6274 24 24 18.6274 24 12C24 5.37259 18.6274 3.25692e-06 12 2.09815e-06ZM7.7071 9.29289C7.31658 8.90237 6.68342 8.90237 6.29289 9.29289C5.90237 9.68342 5.90237 10.3166 6.29289 10.7071L11.2929 15.7071C11.6834 16.0976 12.3166 16.0976 12.7071 15.7071L17.7071 10.7071C18.0976 10.3166 18.0976 9.68342 17.7071 9.2929C17.3166 8.90237 16.6834 8.90237 16.2929 9.2929L12 13.5858L7.7071 9.29289Z" fill="#66717A"></path>
    </svg>