<?xml version="1.0" encoding="UTF-8" standalone="no"?>
<svg
   id="SvgjsSvg1001"
   width="358.17087"
   height="29.409151"
   version="1.1"
   sodipodi:docname="logo.svg"
   inkscape:version="1.1.1 (eb90963e84, 2021-10-02)"
   xmlns:inkscape="http://www.inkscape.org/namespaces/inkscape"
   xmlns:sodipodi="http://sodipodi.sourceforge.net/DTD/sodipodi-0.dtd"
   xmlns="http://www.w3.org/2000/svg"
   xmlns:svg="http://www.w3.org/2000/svg">
  <sodipodi:namedview
     id="namedview75"
     pagecolor="#ffffff"
     bordercolor="#666666"
     borderopacity="1.0"
     inkscape:pageshadow="2"
     inkscape:pageopacity="0.0"
     inkscape:pagecheckerboard="0"
     showgrid="false"
     inkscape:zoom="1.3033333"
     inkscape:cx="148.46547"
     inkscape:cy="24.55243"
     inkscape:window-width="1600"
     inkscape:window-height="863"
     inkscape:window-x="0"
     inkscape:window-y="0"
     inkscape:window-maximized="1"
     inkscape:current-layer="SvgjsSvg1001"
     fit-margin-top="0"
     fit-margin-left="0"
     fit-margin-right="0"
     fit-margin-bottom="0" />
  <defs
     id="SvgjsDefs1002" />
  <g
     id="SvgjsG1015"
     transform="translate(-17.27,-67.920003)">
    <title
       id="title69">0314_geometric_shapes_verti</title>
    <path
       id="color_1"
       d="M 80.55,96.65 H 55.14 A 1.44,1.44 0 0 1 53.7,95.21 V 69.79 a 1.44,1.44 0 0 1 1.44,-1.44 H 80.55 A 1.45,1.45 0 0 1 82,69.79 v 25.42 a 1.45,1.45 0 0 1 -1.45,1.44 z m -24,-2.89 H 79.11 V 71.24 H 56.58 Z M 31.86,97.08 A 14.58,14.58 0 1 1 46.43,82.5 14.6,14.6 0 0 1 31.86,97.08 Z m 0,-26.23 A 11.65,11.65 0 1 0 43.5,82.5 11.66,11.66 0 0 0 31.86,70.85 Z m 86.82,25.81 H 89 a 1.46,1.46 0 0 1 -1.26,-2.18 l 14.85,-25.82 a 1.51,1.51 0 0 1 2.52,0 l 14.84,25.82 a 1.46,1.46 0 0 1 -1.26,2.18 z M 91.5,93.75 h 24.67 L 103.84,72.3 Z"
       fill="#170062" />
    <path
       id="color_2"
       d="m 75.83,90.48 h -16 v -16 h 16 z m -44,-16.2 a 8.22,8.22 0 1 0 8.22,8.22 8.22,8.22 0 0 0 -8.19,-8.22 z m 65.42,16.2 h 13.3 L 103.8,79.25 Z"
       fill="#22adff" />
  </g>
  <text
     xml:space="preserve"
     style="font-style:normal;font-weight:normal;font-size:37.3333px;line-height:1.25;font-family:sans-serif;fill:#000000;fill-opacity:1;stroke:none"
     x="112.73"
     y="27.379999"
     id="text3021"><tspan
       sodipodi:role="line"
       id="tspan3019"
       x="112.73"
       y="27.379999" /></text>
  <g
     aria-label="IdealCareerPath"
     id="text49486"
     style="font-weight:600;font-size:40px;font-family:Cuprum;-inkscape-font-specification:'Cuprum Semi-Bold';letter-spacing:0px">
    <path
       d="M 114.21137,29.009151 V 1.0091515 h 4.4 V 29.009151 Z"
       style="fill:#170062"
       id="path88655" />
    <path
       d="m 129.81129,29.409151 q -2.04,0 -3.56,-1 -1.52,-1 -2.36,-3.24 -0.8,-2.28 -0.8,-6.16 0,-3.88 0.84,-6.12 0.84,-2.28 2.4,-3.2799995 1.6,-1 3.76,-1 1.08,0 1.96,0.28 0.92,0.28 1.64,0.72 v -8.6 h 4.4 V 29.009151 h -3.28 l -0.48,-1.2 h -0.2 q -0.68,0.64 -1.76,1.12 -1.08,0.48 -2.56,0.48 z m 1.48,-2.68 q 0.76,0 1.36,-0.24 0.6,-0.28 1.04,-0.56 v -13.84 q -0.36,-0.32 -1,-0.56 -0.64,-0.24 -1.4,-0.24 -1.12,0 -2,0.64 -0.84,0.64 -1.32,2.32 -0.48,1.68 -0.48,4.76 0,3.08 0.48,4.76 0.48,1.64 1.32,2.32 0.88,0.64 2,0.64 z"
       style="fill:#170062"
       id="path88657" />
    <path
       d="m 151.37127,29.409151 q -3.08,0 -5.04,-1 -1.92,-1 -2.84,-3.24 -0.92,-2.28 -0.92,-6.16 0,-3.88 0.84,-6.12 0.88,-2.28 2.52,-3.2799995 1.68,-1 4.04,-1 2.36,0 4,1 1.64,0.9999995 2.52,3.2799995 0.88,2.24 0.88,6.12 v 1.32 h -10.4 q 0,3.6 1.24,5 1.24,1.4 3.96,1.4 h 4.24 v 1.88 q -0.88,0.28 -2.28,0.52 -1.36,0.28 -2.76,0.28 z m -4.4,-11.72 h 6 q 0,-2.64 -0.4,-4.08 -0.4,-1.44 -1.08,-1.96 -0.68,-0.56 -1.52,-0.56 -0.84,0 -1.52,0.56 -0.68,0.52 -1.08,1.96 -0.4,1.44 -0.4,4.08 z"
       style="fill:#170062"
       id="path88659" />
    <path
       d="m 166.41123,29.409151 q -1.72,0 -3.12,-0.52 -1.4,-0.52 -2.2,-1.88 -0.8,-1.4 -0.8,-4 0,-2.56 0.8,-3.92 0.84,-1.4 2.28,-1.88 1.44,-0.52 3.32,-0.52 0.92,0 1.84,0.12 0.96,0.12 1.76,0.28 v -1.68 q 0,-2.52 -1.16,-3.32 -1.12,-0.8 -3.12,-0.8 h -4 V 9.4091515 q 0.92,-0.32 2.24,-0.56 1.36,-0.24 2.56,-0.24 2.6,0 4.36,0.56 1.76,0.52 2.64,1.9999995 0.88,1.44 0.88,4.24 v 13.6 h -3.28 l -0.48,-1.2 h -0.2 q -0.68,0.64 -1.76,1.12 -1.08,0.48 -2.56,0.48 z m 1.48,-2.68 q 0.76,0 1.4,-0.24 0.64,-0.28 1,-0.56 v -6.6 h -2.4 q -0.8,0 -1.56,0.32 -0.72,0.32 -1.2,1.12 -0.44,0.8 -0.44,2.24 0,1.48 0.44,2.28 0.48,0.8 1.2,1.12 0.76,0.32 1.56,0.32 z"
       style="fill:#170062"
       id="path88661" />
    <path
       d="M 180.09119,29.009151 V 1.0091515 h 4.4 V 29.009151 Z"
       style="fill:#170062"
       id="path88663" />
    <path
       d="m 198.37111,29.409151 q -3,0 -5.08,-1.24 -2.04,-1.28 -3.08,-4.4 -1.04,-3.16 -1.04,-8.76 0,-5.5999995 1,-8.7199995 1.04,-3.16 3,-4.4 2,-1.28000004 4.8,-1.28000004 2,0 3.68,0.24 1.68,0.24000004 2.56,0.56000004 v 2.08 h -4.92 q -1.64,0 -2.96,1 -1.28,0.96 -2.04,3.44 -0.72,2.4799995 -0.72,7.0799995 0,4.56 0.76,7.08 0.76,2.48 2.12,3.48 1.4,0.96 3.24,0.96 h 4.92 v 2.08 q -0.88,0.28 -2.56,0.52 -1.68,0.28 -3.68,0.28 z"
       style="fill:#170062"
       id="path88665" />
    <path
       d="m 213.01111,29.409151 q -1.72,0 -3.12,-0.52 -1.4,-0.52 -2.2,-1.88 -0.8,-1.4 -0.8,-4 0,-2.56 0.8,-3.92 0.84,-1.4 2.28,-1.88 1.44,-0.52 3.32,-0.52 0.92,0 1.84,0.12 0.96,0.12 1.76,0.28 v -1.68 q 0,-2.52 -1.16,-3.32 -1.12,-0.8 -3.12,-0.8 h -4 V 9.4091515 q 0.92,-0.32 2.24,-0.56 1.36,-0.24 2.56,-0.24 2.6,0 4.36,0.56 1.76,0.52 2.64,1.9999995 0.88,1.44 0.88,4.24 v 13.6 h -3.28 l -0.48,-1.2 h -0.2 q -0.68,0.64 -1.76,1.12 -1.08,0.48 -2.56,0.48 z m 1.48,-2.68 q 0.76,0 1.4,-0.24 0.64,-0.28 1,-0.56 v -6.6 h -2.4 q -0.8,0 -1.56,0.32 -0.72,0.32 -1.2,1.12 -0.44,0.8 -0.44,2.24 0,1.48 0.44,2.28 0.48,0.8 1.2,1.12 0.76,0.32 1.56,0.32 z"
       style="fill:#170062"
       id="path88667" />
    <path
       d="M 226.49108,29.009151 V 9.0091515 h 3.28 l 0.48,1.5999995 h 0.2 q 0.64,-0.6 1.76,-1.0799995 1.16,-0.52 2.96,-0.52 h 2.4 v 3.2799995 h -4.28 q -0.76,0 -1.4,0.24 -0.6,0.2 -1,0.56 v 15.92 z"
       style="fill:#170062"
       id="path88669" />
    <path
       d="m 248.05104,29.409151 q -3.08,0 -5.04,-1 -1.92,-1 -2.84,-3.24 -0.92,-2.28 -0.92,-6.16 0,-3.88 0.84,-6.12 0.88,-2.28 2.52,-3.2799995 1.68,-1 4.04,-1 2.36,0 4,1 1.64,0.9999995 2.52,3.2799995 0.88,2.24 0.88,6.12 v 1.32 h -10.4 q 0,3.6 1.24,5 1.24,1.4 3.96,1.4 h 4.24 v 1.88 q -0.88,0.28 -2.28,0.52 -1.36,0.28 -2.76,0.28 z m -4.4,-11.72 h 6 q 0,-2.64 -0.4,-4.08 -0.4,-1.44 -1.08,-1.96 -0.68,-0.56 -1.52,-0.56 -0.84,0 -1.52,0.56 -0.68,0.52 -1.08,1.96 -0.4,1.44 -0.4,4.08 z"
       style="fill:#170062"
       id="path88671" />
    <path
       d="m 266.171,29.409151 q -3.08,0 -5.04,-1 -1.92,-1 -2.84,-3.24 -0.92,-2.28 -0.92,-6.16 0,-3.88 0.84,-6.12 0.88,-2.28 2.52,-3.2799995 1.68,-1 4.04,-1 2.36,0 4,1 1.64,0.9999995 2.52,3.2799995 0.88,2.24 0.88,6.12 v 1.32 h -10.4 q 0,3.6 1.24,5 1.24,1.4 3.96,1.4 h 4.24 v 1.88 q -0.88,0.28 -2.28,0.52 -1.36,0.28 -2.76,0.28 z m -4.4,-11.72 h 6 q 0,-2.64 -0.4,-4.08 -0.4,-1.44 -1.08,-1.96 -0.68,-0.56 -1.52,-0.56 -0.84,0 -1.52,0.56 -0.68,0.52 -1.08,1.96 -0.4,1.44 -0.4,4.08 z"
       style="fill:#170062"
       id="path88673" />
    <path
       d="M 276.41097,29.009151 V 9.0091515 h 3.28 l 0.48,1.5999995 h 0.2 q 0.64,-0.6 1.76,-1.0799995 1.16,-0.52 2.96,-0.52 h 2.4 v 3.2799995 h -4.28 q -0.76,0 -1.4,0.24 -0.6,0.2 -1,0.56 v 15.92 z"
       style="fill:#170062"
       id="path88675" />
    <path
       d="M 290.69094,29.009151 V 1.4091515 q 1.52,-0.44000004 3.12,-0.60000004 1.6,-0.2 3.68,-0.2 3.28,0 5.28,1.00000004 2.04,0.96 2.96,3.16 0.96,2.16 0.96,5.8399995 0,3.84 -0.88,6.12 -0.88,2.24 -2.68,3.24 -1.76,0.96 -4.44,0.96 -0.6,0 -1.72,-0.12 -1.12,-0.12 -1.88,-0.28 v 8.48 z m 4.4,-11.12 h 2.4 q 1.6,0 2.68,-0.64 1.08,-0.64 1.6,-2.2 0.52,-1.6 0.52,-4.44 0,-2.7999995 -0.52,-4.3199995 -0.52,-1.56 -1.6,-2.16 -1.08,-0.64 -2.68,-0.64 h -2.4 z"
       style="fill:#170062"
       id="path88677" />
    <path
       d="m 315.57093,29.409151 q -1.72,0 -3.12,-0.52 -1.4,-0.52 -2.2,-1.88 -0.8,-1.4 -0.8,-4 0,-2.56 0.8,-3.92 0.84,-1.4 2.28,-1.88 1.44,-0.52 3.32,-0.52 0.92,0 1.84,0.12 0.96,0.12 1.76,0.28 v -1.68 q 0,-2.52 -1.16,-3.32 -1.12,-0.8 -3.12,-0.8 h -4 V 9.4091515 q 0.92,-0.32 2.24,-0.56 1.36,-0.24 2.56,-0.24 2.6,0 4.36,0.56 1.76,0.52 2.64,1.9999995 0.88,1.44 0.88,4.24 v 13.6 h -3.28 l -0.48,-1.2 h -0.2 q -0.68,0.64 -1.76,1.12 -1.08,0.48 -2.56,0.48 z m 1.48,-2.68 q 0.76,0 1.4,-0.24 0.64,-0.28 1,-0.56 v -6.6 h -2.4 q -0.8,0 -1.56,0.32 -0.72,0.32 -1.2,1.12 -0.44,0.8 -0.44,2.24 0,1.48 0.44,2.28 0.48,0.8 1.2,1.12 0.76,0.32 1.56,0.32 z"
       style="fill:#170062"
       id="path88679" />
    <path
       d="m 335.53089,29.409151 q -1.68,0 -3.04,-0.52 -1.36,-0.56 -2.16,-2 -0.8,-1.48 -0.8,-4.28 v -10.32 h -2.28 V 9.4091515 h 2.28 v -4.8 h 4.4 v 4.8 h 5.44 v 2.0799995 q -0.88,0.28 -2.28,0.56 -1.36,0.24 -2.76,0.24 h -0.4 v 10.32 q 0,1.68 0.4,2.56 0.4,0.88 1,1.24 0.64,0.32 1.24,0.32 h 3.6 v 1.88 q -0.48,0.2 -1.32,0.4 -0.8,0.16 -1.72,0.28 -0.88,0.12 -1.6,0.12 z"
       style="fill:#170062"
       id="path88681" />
    <path
       d="M 343.57088,29.009151 V 1.0091515 h 4.4 v 8.72 q 0.8,-0.52 1.84,-0.8 1.04,-0.32 2.28,-0.32 1.72,0 3.08,0.52 1.4,0.52 2.2,1.8799995 0.8,1.32 0.8,3.88 v 14.12 h -4.4 v -14.12 q 0,-2.12 -1.04,-2.84 -1,-0.76 -2.36,-0.76 -0.76,0 -1.4,0.24 -0.64,0.24 -1,0.56 v 16.92 z"
       style="fill:#170062"
       id="path88683" />
  </g>
</svg>
