<?xml version="1.0" encoding="UTF-8" standalone="no"?>
<svg
   id="SvgjsSvg1001"
   width="40.058704"
   height="30.827415"
   version="1.1"
   sodipodi:docname="square-only.svg"
   inkscape:version="1.1.1 (eb90963e84, 2021-10-02)"
   xmlns:inkscape="http://www.inkscape.org/namespaces/inkscape"
   xmlns:sodipodi="http://sodipodi.sourceforge.net/DTD/sodipodi-0.dtd"
   xmlns="http://www.w3.org/2000/svg"
   xmlns:svg="http://www.w3.org/2000/svg">
  <sodipodi:namedview
     id="namedview275"
     pagecolor="#ffffff"
     bordercolor="#666666"
     borderopacity="1.0"
     inkscape:pageshadow="2"
     inkscape:pageopacity="0.0"
     inkscape:pagecheckerboard="0"
     showgrid="false"
     fit-margin-top="0"
     fit-margin-left="0"
     fit-margin-right="0"
     fit-margin-bottom="0"
     inkscape:zoom="1.7354414"
     inkscape:cx="26.218114"
     inkscape:cy="42.92856"
     inkscape:window-width="1866"
     inkscape:window-height="1016"
     inkscape:window-x="0"
     inkscape:window-y="0"
     inkscape:window-maximized="1"
     inkscape:current-layer="SvgjsSvg1001" />
  <defs
     id="SvgjsDefs1002">
    <clipPath
       clipPathUnits="userSpaceOnUse"
       id="clipPath1167">
      <rect
         style="opacity:0.79;fill:#0000ff;fill-rule:evenodd"
         id="rect1169"
         width="401.09744"
         height="62.858654"
         x="2.7596188"
         y="53.273827" />
    </clipPath>
    <clipPath
       clipPathUnits="userSpaceOnUse"
       id="clipPath1171">
      <rect
         style="opacity:0.79;fill:#0000ff;fill-rule:evenodd"
         id="rect1173"
         width="401.09744"
         height="62.858654"
         x="-127.24038"
         y="-15.046181" />
    </clipPath>
    <clipPath
       clipPathUnits="userSpaceOnUse"
       id="clipPath99637">
      <rect
         style="opacity:0.5;stroke-width:0.97258"
         id="rect99639"
         width="40.058704"
         height="45.424812"
         x="47.319092"
         y="61.102554" />
    </clipPath>
  </defs>
  <g
     id="SvgjsG1015"
     transform="matrix(1,0,0,1.0571816,-47.319092,-71.803778)"
     clip-path="url(#clipPath99637)"
     inkscape:export-filename="/home/alexforce/Desktop/logoupdates/circle-only.png"
     inkscape:export-xdpi="96"
     inkscape:export-ydpi="96">
    <title
       id="title269">0314_geometric_shapes_verti</title>
    <path
       id="path99223"
       d="M 80.55,96.65 H 55.14 A 1.44,1.44 0 0 1 53.7,95.21 V 69.79 a 1.44,1.44 0 0 1 1.44,-1.44 H 80.55 A 1.45,1.45 0 0 1 82,69.79 v 25.42 a 1.45,1.45 0 0 1 -1.45,1.44 z m -24,-2.89 H 79.11 V 71.24 H 56.58 Z M 31.86,97.08 A 14.58,14.58 0 1 1 46.43,82.5 14.6,14.6 0 0 1 31.86,97.08 Z m 0,-26.23 A 11.65,11.65 0 1 0 43.5,82.5 11.66,11.66 0 0 0 31.86,70.85 Z m 86.82,25.81 H 89 a 1.46,1.46 0 0 1 -1.26,-2.18 l 14.85,-25.82 a 1.51,1.51 0 0 1 2.52,0 l 14.84,25.82 a 1.46,1.46 0 0 1 -1.26,2.18 z M 91.5,93.75 h 24.67 L 103.84,72.3 Z"
       fill="#170062" />
    <path
       id="path99220"
       d="m 75.83,90.48 h -16 v -16 h 16 z m -44,-16.2 a 8.22,8.22 0 1 0 8.22,8.22 8.22,8.22 0 0 0 -8.19,-8.22 z m 65.42,16.2 h 13.3 L 103.8,79.25 Z"
       fill="#22adff"
       style="fill:#007bff;fill-opacity:1" />
  </g>
</svg>
