<svg id="tiktok-square" version="1.1" xmlns="http://www.w3.org/2000/svg" xmlns:xlink="http://www.w3.org/1999/xlink" x="0px" y="0px" viewBox="0 0 448 512" style="enable-background:new 0 0 448 512;" xml:space="preserve"> <path d="M400.5,31.6h-353c-26.4,0-47.9,21.6-47.9,47.9v352.9c0,26.4,21.6,47.9,47.9,47.9h352.9c26.4,0,47.9-21.6,47.9-47.9V79.5 C448.4,53.2,426.8,31.6,400.5,31.6z M355.6,223.9c-24.5,2.3-46-5.6-71-20.7v91.5c0,116.4-126.8,152.8-177.8,69.3 c-32.8-53.6-12.8-147.8,92.4-151.6v51.7c-7.9,1.3-16.6,3.4-24.4,5.9c-23.4,7.9-36.6,22.8-32.9,48.8c7.1,50.1,99,64.8,91.2-33.1 V102.5h50.7l0.2,0.2c5.1,43.5,29.4,69.5,71.5,72.3V223.9z" style="fill: rgb(0, 123, 255);"></path> </svg>
            
            